<?xml version="1.0" encoding="UTF-8"?><svg id="b" xmlns="http://www.w3.org/2000/svg" width="180" height="176.26" viewBox="0 0 180 176.26"><defs><style>.d{fill:#0072bc;}.e{fill:#8dc63f;}.f{fill:#00b3f0;}</style></defs><g id="c"><path d="m0,168.2h3.08c.8,0,1.41.26,1.83.77.36.45.54,1.03.54,1.75s-.18,1.29-.54,1.74c-.42.52-1.03.78-1.83.78h-1.58v2.82H0v-7.87Zm1.5,3.71h1.18c.41,0,.72-.07.92-.21.27-.19.4-.51.4-.97s-.13-.78-.4-.97c-.21-.15-.52-.22-.92-.22h-1.18v2.37Z"/><path d="m9.54,168.02c1.04,0,1.86.4,2.48,1.19.59.76.88,1.75.88,2.95s-.29,2.14-.88,2.9c-.62.8-1.45,1.2-2.48,1.2s-1.87-.4-2.49-1.19c-.59-.75-.89-1.72-.89-2.9s.3-2.19.89-2.95c.62-.8,1.44-1.19,2.49-1.19m0,6.78c.63,0,1.11-.27,1.43-.82.28-.47.43-1.08.43-1.82s-.14-1.39-.42-1.86c-.33-.55-.81-.83-1.44-.83s-1.11.28-1.43.83c-.28.48-.43,1.1-.43,1.86s.14,1.35.42,1.81c.33.55.81.82,1.44.82"/><polygon points="14.01 168.2 15.51 168.2 15.51 174.62 18.85 174.62 18.85 176.07 14.01 176.07 14.01 168.2"/><polygon points="19.77 168.2 21.27 168.2 21.27 174.62 24.61 174.62 24.61 176.07 19.77 176.07 19.77 168.2"/><path d="m31.35,173.09c0,1.05-.26,1.85-.78,2.38-.5.52-1.21.78-2.15.78s-1.65-.26-2.14-.77c-.51-.53-.76-1.33-.76-2.39v-4.89h1.5v4.89c0,.52.08.92.24,1.17.22.35.61.53,1.16.53.53,0,.89-.13,1.11-.4.21-.27.32-.7.32-1.31v-4.89h1.5v4.89Z"/><polygon points="34.24 169.66 32.19 169.66 32.19 168.2 37.8 168.2 37.8 169.66 35.74 169.66 35.74 176.07 34.24 176.07 34.24 169.66"/><rect x="38.65" y="168.2" width="1.5" height="7.87"/><path d="m44.63,168.02c1.04,0,1.86.4,2.48,1.19.59.76.88,1.75.88,2.95s-.29,2.14-.88,2.9c-.62.8-1.45,1.2-2.48,1.2s-1.87-.4-2.49-1.19c-.59-.75-.89-1.72-.89-2.9s.3-2.19.89-2.95c.62-.8,1.45-1.19,2.49-1.19m0,6.78c.63,0,1.11-.27,1.43-.82.28-.47.43-1.08.43-1.82s-.14-1.39-.42-1.86c-.33-.55-.81-.83-1.44-.83s-1.11.28-1.43.83c-.28.48-.43,1.1-.43,1.86s.14,1.35.42,1.81c.33.55.81.82,1.44.82"/><polygon points="49.09 168.2 50.58 168.2 53.44 173.48 53.45 168.2 54.88 168.2 54.88 176.07 53.37 176.07 50.51 170.81 50.5 176.07 49.09 176.07 49.09 168.2"/><path d="m65.18,170.85c-.05-.39-.22-.72-.51-.98-.28-.26-.62-.39-.99-.39-.63,0-1.11.28-1.43.83-.28.48-.43,1.1-.43,1.86s.14,1.35.42,1.81c.33.55.81.82,1.44.82.44,0,.8-.16,1.08-.49.26-.3.42-.72.48-1.26h1.46c-.08.98-.39,1.76-.94,2.34-.54.58-1.24.87-2.07.87-1.04,0-1.87-.4-2.49-1.19-.59-.75-.89-1.72-.89-2.9s.3-2.19.89-2.95c.62-.8,1.44-1.19,2.49-1.19.77,0,1.43.24,1.97.73.56.51.89,1.21.99,2.1h-1.46Z"/><path d="m70.86,168.02c1.04,0,1.86.4,2.48,1.19.59.76.88,1.75.88,2.95s-.29,2.14-.88,2.9c-.62.8-1.45,1.2-2.48,1.2s-1.87-.4-2.49-1.19c-.59-.75-.89-1.72-.89-2.9s.3-2.19.89-2.95c.62-.8,1.44-1.19,2.49-1.19m0,6.78c.63,0,1.11-.27,1.43-.82.28-.47.43-1.08.43-1.82s-.14-1.39-.42-1.86c-.33-.55-.81-.83-1.44-.83s-1.11.28-1.43.83c-.28.48-.43,1.1-.43,1.86s.14,1.35.42,1.81c.33.55.81.82,1.44.82"/><polygon points="75.33 168.2 76.81 168.2 79.68 173.48 79.69 168.2 81.12 168.2 81.12 176.07 79.6 176.07 76.75 170.81 76.73 176.07 75.33 176.07 75.33 168.2"/><polygon points="84.04 169.66 81.98 169.66 81.98 168.2 87.6 168.2 87.6 169.66 85.53 169.66 85.53 176.07 84.04 176.07 84.04 169.66"/><path d="m88.44,168.2h3.69c.6,0,1.09.21,1.46.63.37.42.55.94.55,1.55,0,.47-.09.87-.27,1.2-.18.33-.45.59-.82.76.34.11.6.35.77.72.15.32.23.7.23,1.14,0,.4.01.72.04.95.04.42.12.72.24.92h-1.5c-.07-.19-.12-.49-.16-.89-.05-.56-.08-.89-.09-1-.05-.42-.16-.73-.33-.92-.17-.18-.43-.28-.8-.28h-1.51v3.08h-1.5v-7.87Zm1.5,3.57h1.65c.34,0,.6-.09.77-.27.18-.18.26-.47.26-.86s-.09-.66-.26-.84c-.17-.18-.43-.26-.78-.26h-1.65v2.23Z"/><path d="m98.53,168.02c1.04,0,1.86.4,2.48,1.19.59.76.88,1.75.88,2.95s-.29,2.14-.88,2.9c-.62.8-1.45,1.2-2.48,1.2s-1.86-.4-2.49-1.19c-.59-.75-.89-1.72-.89-2.9s.3-2.19.89-2.95c.62-.8,1.44-1.19,2.49-1.19m0,6.78c.63,0,1.11-.27,1.44-.82.28-.47.43-1.08.43-1.82s-.14-1.39-.42-1.86c-.33-.55-.81-.83-1.44-.83s-1.11.28-1.43.83c-.28.48-.43,1.1-.43,1.86s.14,1.35.42,1.81c.33.55.81.82,1.44.82"/><polygon points="102.99 168.2 104.49 168.2 104.49 174.62 107.84 174.62 107.84 176.07 102.99 176.07 102.99 168.2"/><path d="m113.09,168.2h2.95c.92,0,1.66.32,2.22.96.6.69.89,1.67.89,2.94,0,1.19-.26,2.14-.77,2.84-.55.76-1.33,1.13-2.34,1.13h-2.95v-7.87Zm1.5,6.42h1.35c.49,0,.88-.17,1.18-.52.35-.41.53-1.02.53-1.83s-.14-1.48-.43-1.9c-.32-.47-.84-.7-1.56-.7h-1.07v4.96Z"/><polygon points="120.27 168.2 125.39 168.2 125.39 169.66 121.77 169.66 121.77 171.34 125.1 171.34 125.1 172.68 121.77 172.68 121.77 174.62 125.46 174.62 125.46 176.07 120.27 176.07 120.27 168.2"/><path d="m126.57,168.2h3.08c.8,0,1.41.26,1.83.77.36.45.54,1.03.54,1.75s-.18,1.29-.54,1.74c-.42.52-1.03.78-1.83.78h-1.58v2.82h-1.5v-7.87Zm1.5,3.71h1.18c.41,0,.72-.07.92-.21.26-.19.4-.51.4-.97s-.13-.78-.4-.97c-.21-.15-.52-.22-.92-.22h-1.18v2.37Z"/><path d="m134.92,168.2h1.54l2.57,7.87h-1.57l-.52-1.75h-2.56l-.54,1.75h-1.53l2.61-7.87Zm-.15,4.83h1.78l-.86-2.89-.92,2.89Z"/><path d="m139.69,168.2h3.69c.6,0,1.09.21,1.46.63.37.42.55.94.55,1.55,0,.47-.09.87-.27,1.2-.18.33-.45.59-.82.76.34.11.6.35.77.72.15.32.23.7.23,1.14,0,.4.01.72.04.95.04.42.12.72.24.92h-1.5c-.07-.19-.12-.49-.16-.89-.05-.56-.08-.89-.09-1-.05-.42-.16-.73-.33-.92-.17-.18-.43-.28-.8-.28h-1.51v3.08h-1.5v-7.87Zm1.5,3.57h1.66c.34,0,.6-.09.77-.27.18-.18.26-.47.26-.86s-.09-.66-.26-.84c-.17-.18-.43-.26-.78-.26h-1.66v2.23Z"/><polygon points="148.23 169.66 146.18 169.66 146.18 168.2 151.8 168.2 151.8 169.66 149.73 169.66 149.73 176.07 148.23 176.07 148.23 169.66"/><polygon points="152.64 168.2 154.75 168.2 156.36 173.62 157.89 168.2 160.01 168.2 160.01 176.07 158.6 176.07 158.6 170.49 156.9 176.07 155.73 176.07 154.06 170.54 154.04 176.07 152.64 176.07 152.64 168.2"/><polygon points="161.43 168.2 166.55 168.2 166.55 169.66 162.92 169.66 162.92 171.34 166.25 171.34 166.25 172.68 162.92 172.68 162.92 174.62 166.62 174.62 166.62 176.07 161.43 176.07 161.43 168.2"/><polygon points="167.73 168.2 169.21 168.2 172.07 173.48 172.09 168.2 173.52 168.2 173.52 176.07 172 176.07 169.15 170.81 169.13 176.07 167.73 176.07 167.73 168.2"/><polygon points="176.43 169.66 174.38 169.66 174.38 168.2 180 168.2 180 169.66 177.93 169.66 177.93 176.07 176.43 176.07 176.43 169.66"/><path d="m14.42,147.22c-.56,0-1.09.11-1.59.34-.5.22-.88.49-1.13.81h.89v8.59h-2.36v-7.22h-1.05v-2.24c.31-.14.79-.42,1.46-.85.67-.43,1.22-.72,1.65-.89.69-.27,1.4-.4,2.15-.4,1.24,0,2.29.31,3.15.91.95.66,1.42,1.54,1.42,2.65v8.04h-2.35v-7.93c0-.56-.2-1-.59-1.32-.39-.32-.94-.48-1.66-.48"/><path d="m27.22,155.09c.28,0,.5-.11.65-.32.13-.18.19-.4.19-.69v-3.55h-2.48c-.23,0-.45.09-.66.26-.2.17-.3.38-.3.61h-2.69c0-1.92.25-3.34.76-4.27.63-1.16,1.74-1.75,3.32-1.75.36,0,.96.06,1.8.18.45.06.79.1,1.02.1.29,0,.55-.02.78-.06.23-.04.5-.12.79-.25v2.22c-.18.09-.39.16-.62.21-.23.05-.45.07-.66.07-.3,0-.65-.03-1.07-.1-1-.16-1.65-.24-1.95-.24-.47,0-.83.11-1.08.34-.25.23-.38.57-.38,1.05l.2-.17c.21-.12.44-.18.7-.18h4.88v5.58c0,.96-.36,1.7-1.08,2.21-.67.48-1.56.71-2.69.71s-1.97-.21-2.65-.64c-.82-.51-1.23-1.27-1.23-2.28,0-.66.23-1.23.68-1.7.45-.47,1-.71,1.64-.71s1.19.23,1.65.7c.46.47.69,1.04.69,1.71,0,.21-.01.37-.04.48-.03.11-.08.27-.16.47m-2.88-.95c0,.23.07.41.21.56.14.15.32.22.53.22s.4-.08.54-.22c.14-.15.22-.33.22-.56s-.07-.4-.22-.55c-.14-.15-.33-.22-.54-.22s-.38.07-.53.22c-.14.15-.21.33-.21.55"/><path d="m36.53,151.84v-1.29l-.22.04h-.28c-.69.01-1.27-.24-1.75-.73-.48-.5-.72-1.1-.72-1.8s.25-1.33.75-1.85c.5-.52,1.11-.78,1.84-.78.88,0,1.57.28,2.07.84.45.52.67,1.18.67,1.99v4.21l3.38,2.15v-9.11h2.35v11.46h-3.14l-2.83-1.78c-.19.54-.52.98-.98,1.33-.51.39-1.11.59-1.8.59-.72,0-1.33-.26-1.83-.77-.5-.51-.75-1.14-.75-1.89s.25-1.38.74-1.9c.49-.52,1.1-.77,1.83-.77h.36s.28.06.28.06Zm-1.53,2.62c0,.25.09.47.26.64.17.18.38.27.62.27s.46-.08.63-.25c.17-.17.26-.39.26-.66s-.09-.48-.26-.66c-.17-.18-.38-.27-.63-.27s-.45.09-.62.27c-.17.18-.26.4-.26.66m1.83-6.39c0-.23-.08-.43-.23-.59-.15-.16-.34-.24-.57-.24s-.41.08-.57.24c-.16.16-.24.35-.24.59s.08.43.23.59c.15.16.35.24.58.24.22,0,.4-.08.56-.25.16-.16.23-.36.23-.58"/><path d="m52.55,148.26c.59,0,1.08.21,1.49.63.4.42.61.94.61,1.55s-.2,1.11-.61,1.54c-.41.43-.9.64-1.49.64-.23,0-.45-.04-.64-.11l-.68,4.44h-2.73c0-.91-.08-1.8-.24-2.7-.16-.89-.33-1.77-.49-2.62-.16-.85-.24-1.53-.24-2.04,0-1.27.4-2.27,1.22-3.02.88-.81,2.16-1.22,3.83-1.22s2.97.28,3.79.84c.87.6,1.31,1.54,1.31,2.83v7.93h-2.37v-7.76c0-.64-.25-1.13-.75-1.47-.5-.34-1.14-.5-1.93-.5-.97,0-1.7.27-2.17.8-.41.48-.62,1.14-.62,1.99,0,.3.02.6.07.92.05.31.12.65.22,1.03l.22-1.47c.11-.71.36-1.25.76-1.64.4-.38.87-.58,1.43-.58m-.78,2.21c0,.21.08.4.23.56.15.16.34.24.55.24s.39-.08.54-.24c.15-.16.23-.34.23-.56s-.08-.4-.23-.56c-.15-.16-.33-.24-.54-.24s-.39.08-.55.23c-.16.15-.24.34-.24.57"/><path d="m65.03,147.3c-.7,0-1.24.25-1.63.75-.39.5-.59,1.17-.59,2.02h-2.46c0-1.41.39-2.53,1.16-3.36.85-.9,2.05-1.36,3.63-1.36,1.38,0,2.44.32,3.19.96.75.64,1.12,1.58,1.12,2.82v4.95c0,.9-.25,1.62-.74,2.18-.49.56-1.14.83-1.94.83s-1.42-.24-1.93-.73c-.51-.49-.76-1.11-.76-1.87,0-.7.24-1.3.72-1.8.48-.5,1.06-.75,1.74-.75h.34s.22.06.22.06v-2.62c0-.63-.16-1.12-.49-1.48-.36-.4-.89-.6-1.58-.6m1.51,8.01c.22,0,.4-.08.57-.24.16-.16.24-.35.24-.59s-.08-.43-.24-.6c-.16-.16-.35-.24-.58-.24s-.4.08-.56.24c-.16.16-.24.36-.24.6s.08.43.23.59c.15.16.34.24.57.24"/><path d="m75.32,150.56l-.22.04h-.28c-.68.01-1.26-.24-1.74-.73-.48-.5-.72-1.1-.72-1.8s.25-1.33.75-1.85c.5-.52,1.11-.78,1.83-.78.89,0,1.58.28,2.07.84.45.52.68,1.18.68,1.99v6.72h3.86v-9.46h2.35v11.46h-8.56v-6.42Zm.31-2.49c0-.23-.08-.43-.23-.59-.15-.16-.35-.24-.58-.24-.22,0-.4.08-.56.25-.16.16-.24.36-.24.58s.08.43.23.59c.15.16.34.24.57.24s.41-.08.57-.24c.16-.16.24-.36.24-.59"/><path d="m91.81,148.26c.59,0,1.08.21,1.49.63.41.42.61.94.61,1.55s-.2,1.11-.61,1.54c-.4.43-.9.64-1.49.64-.23,0-.45-.04-.64-.11l-.68,4.44h-2.73c0-.91-.08-1.8-.24-2.7-.16-.89-.33-1.77-.49-2.62-.16-.85-.24-1.53-.24-2.04,0-1.27.4-2.27,1.22-3.02.88-.81,2.16-1.22,3.83-1.22s2.97.28,3.79.84c.88.6,1.31,1.54,1.31,2.83v7.93h-2.37v-7.76c0-.64-.25-1.13-.75-1.47-.5-.34-1.14-.5-1.93-.5-.97,0-1.7.27-2.17.8-.41.48-.62,1.14-.62,1.99,0,.3.02.6.07.92.05.31.12.65.22,1.03l.22-1.47c.11-.71.36-1.25.75-1.64.4-.38.88-.58,1.43-.58m-.78,2.21c0,.21.08.4.23.56.15.16.34.24.55.24s.39-.08.54-.24c.15-.16.23-.34.23-.56s-.08-.4-.23-.56c-.15-.16-.33-.24-.54-.24s-.39.08-.55.23c-.16.15-.24.34-.24.57"/><path d="m94.42,162.17c-.42,0-.81-.18-1.16-.53-.35-.36-.53-.8-.53-1.33s.18-.99.55-1.36c.37-.36.83-.54,1.39-.54.66,0,1.2.23,1.62.7.42.47.63,1.05.63,1.73v3.42h-2.5v-2.09Zm-.46-1.83c0,.18.06.35.2.48.13.13.29.2.47.2s.34-.07.47-.2c.13-.14.2-.3.2-.48,0-.2-.06-.36-.2-.5-.13-.13-.29-.2-.47-.2s-.34.07-.47.2c-.13.14-.2.3-.2.5"/><path d="m103,151.84v-1.29l-.22.04h-.28c-.68.01-1.27-.24-1.75-.73-.48-.5-.72-1.1-.72-1.8s.25-1.33.74-1.85c.5-.52,1.11-.78,1.84-.78.88,0,1.57.28,2.07.84.45.52.68,1.18.68,1.99v4.21l3.38,2.15v-9.11h2.35v11.46h-3.14l-2.83-1.78c-.19.54-.51.98-.97,1.33-.51.39-1.11.59-1.8.59-.72,0-1.33-.26-1.83-.77-.5-.51-.74-1.14-.74-1.89s.25-1.38.74-1.9c.49-.52,1.1-.77,1.83-.77h.37s.28.06.28.06Zm-1.53,2.62c0,.25.09.47.26.64.17.18.38.27.62.27s.46-.08.63-.25c.17-.17.26-.39.26-.66s-.09-.48-.26-.66c-.17-.18-.38-.27-.63-.27s-.45.09-.62.27c-.17.18-.26.4-.26.66m1.83-6.39c0-.23-.08-.43-.23-.59-.15-.16-.34-.24-.57-.24s-.4.08-.57.24c-.16.16-.24.35-.24.59s.08.43.23.59c.15.16.35.24.58.24.22,0,.4-.08.56-.25.16-.16.24-.36.24-.58"/><path d="m117.19,151.84v-1.29l-.22.04h-.28c-.68.01-1.27-.24-1.75-.73-.48-.5-.72-1.1-.72-1.8s.25-1.33.74-1.85c.5-.52,1.11-.78,1.84-.78.88,0,1.57.28,2.07.84.45.52.68,1.18.68,1.99v4.21l3.38,2.15v-9.11h2.35v11.46h-3.14l-2.83-1.78c-.19.54-.51.98-.97,1.33-.51.39-1.11.59-1.8.59-.72,0-1.33-.26-1.83-.77-.5-.51-.74-1.14-.74-1.89s.25-1.38.74-1.9c.49-.52,1.1-.77,1.83-.77h.37s.28.06.28.06Zm-1.53,2.62c0,.25.09.47.26.64.17.18.38.27.62.27s.46-.08.64-.25c.17-.17.26-.39.26-.66s-.09-.48-.26-.66c-.17-.18-.38-.27-.64-.27s-.45.09-.62.27c-.17.18-.26.4-.26.66m1.83-6.39c0-.23-.08-.43-.23-.59-.15-.16-.34-.24-.57-.24s-.4.08-.57.24c-.16.16-.24.35-.24.59s.08.43.23.59c.15.16.35.24.58.24.22,0,.4-.08.56-.25.16-.16.24-.36.24-.58"/><path d="m132.03,152c.74,0,1.35.25,1.83.74.48.49.72,1.1.72,1.8s-.24,1.3-.72,1.8c-.48.5-1.06.75-1.74.75-.88,0-1.58-.28-2.09-.86-.51-.57-.76-1.37-.76-2.37,0-1.46.33-2.69,1-3.71.76-1.16,1.79-1.73,3.1-1.73.75,0,1.42.36,2.02,1.09.52.65.88,1.41,1.08,2.31.12-.48.18-.95.18-1.4,0-.95-.28-1.68-.83-2.2-.55-.52-1.32-.77-2.31-.77-.85,0-1.56.16-2.15.5-.59.33-.94.81-1.06,1.45h-2.16c0-1.21.55-2.19,1.64-2.95,1.04-.72,2.29-1.08,3.76-1.08,1.98,0,3.42.48,4.32,1.43.75.79,1.12,1.94,1.12,3.44,0,.69-.04,1.4-.13,2.12-.09.72-.17,1.48-.26,2.27-.09.79-.13,1.57-.13,2.34h-2.83c-.17-1.57-.51-3-1.02-4.3-.5-1.29-1.01-1.94-1.5-1.94-.33,0-.6.15-.79.45-.14.23-.23.52-.27.84m-.73,2.55c0,.23.08.43.23.59.15.16.35.24.58.24s.41-.08.57-.24c.15-.16.23-.36.23-.59s-.08-.43-.23-.59c-.15-.16-.34-.24-.57-.24s-.4.08-.57.24c-.16.16-.24.36-.24.59"/><path d="m147.85,156.98h-3.04v-6.42l-.22.04h-.28c-.68.01-1.26-.24-1.74-.73-.48-.5-.72-1.1-.72-1.8s.25-1.33.75-1.85c.5-.52,1.1-.78,1.83-.78.89,0,1.58.28,2.07.84.45.52.68,1.18.68,1.99v4.13l2.08-6.73,2.24,6.73v-6.87h2.35v11.46h-2.77l-1.77-4.95-1.45,4.95Zm-2.73-8.91c0-.23-.08-.43-.23-.59-.15-.16-.35-.24-.58-.24-.22,0-.4.08-.56.25-.16.16-.24.36-.24.58s.08.43.23.59c.15.16.34.24.57.24s.4-.08.57-.24c.16-.16.24-.36.24-.59"/><path d="m143.64,141.22c.3,0,.74-.15,1.33-.45.95-.48,1.51-.76,1.69-.84.74-.31,1.41-.46,2-.46.7,0,1.49.19,2.37.56.94.42,1.88.83,2.81,1.25v1.94h-10.2v-2Zm5.1-.13c-.35,0-.71.07-1.09.2-.37.14-.71.31-1.02.53h4.33c-.25-.22-.6-.4-1.03-.53-.43-.13-.83-.2-1.19-.2"/><path d="m166,145.52h2.36v3.94c.15-.06.36-.2.62-.39l.32-.27v2.46l-.3.18c-.33.21-.54.34-.65.39v5.13h-9.06v-6.42l-.21.04h-.28c-.69.01-1.27-.24-1.75-.73-.48-.5-.72-1.1-.72-1.8s.25-1.33.74-1.85c.5-.52,1.11-.78,1.84-.78.88,0,1.57.28,2.06.84.45.52.68,1.19.68,1.99v6.72h4.35v-2.35c-.31.09-.66.13-1.03.13-.82,0-1.5-.18-2.03-.56-.64-.45-.96-1.1-.96-1.97,0-.51.18-.96.54-1.33.36-.37.79-.56,1.28-.56s.94.18,1.29.55c.36.37.53.81.53,1.34v.25s-.05.2-.05.2h.23s.13.01.13.01h.06v-5.16Zm-6.4,2.55c0-.23-.08-.43-.23-.59-.15-.16-.34-.24-.57-.24s-.41.08-.57.24c-.16.16-.24.35-.24.59s.08.43.23.59c.15.16.35.24.58.24.21,0,.4-.08.56-.25.16-.16.24-.36.24-.58m3.63,2.12c0,.17.06.31.17.43l.41.17c.17,0,.31-.06.42-.17.11-.11.16-.26.16-.43s-.05-.32-.16-.43c-.11-.11-.25-.17-.42-.17l-.41.17c-.11.12-.17.26-.17.43"/><rect class="f" x="16.71" y="122.81" width="144.33" height="9.71"/><path class="e" d="m143.48,105.95h-52.84v-13c2.48.17,6.55-.06,10.45-2.53,4.27-2.7,7.18-7.3,8.67-13.69h-.06s.22-.65.22-.65c-.26-.1-6.55-2.37-12.95.76-3.31,1.61-5.99,4.33-8.04,8.09-2.08-4.06-4.88-6.98-8.36-8.68-6.41-3.13-12.69-.86-12.95-.76l.28.8-.08.02c1.49,6.38,4.4,10.99,8.67,13.69,3.71,2.35,7.58,2.67,10.09,2.55v13.4H16.71v6.9h144.33v-6.9h-17.56Zm-44.58-24.87c1.76-.86,3.54-1.15,5.07-1.19-3.06,7.09-8.33,8.43-11.67,8.48,1.66-3.49,3.87-5.95,6.6-7.29Zm-25.39-1.85c3.58.05,8.53,1.61,11.83,8.72-3.38-.04-8.76-1.39-11.83-8.72Z"/><path class="f" d="m117.43,69.33c-3.72-8.68-11.61-19.04-28.01-19.86v-.06c-.17,0-.32.02-.48.03-.24,0-.45-.04-.69-.04v.08c-16.41.82-24.3,11.17-28.02,19.86-4,9.34-4.04,18.48-4.04,18.86v17.74h6.03v-17.74c0-1.29.41-31.54,26.75-32.53,26.16,1.19,26.48,31.22,26.48,32.51v17.75h6.03v-17.75c0-.38-.04-9.53-4.04-18.86Z"/><path class="f" d="m41.68,81.28c0-1.83.71-45.04,47.21-45.96,46.51,1.01,47.06,44.11,47.06,45.95v24.68h7.53v-24.68c0-.54-.08-13.37-6.83-26.43-6.28-12.16-19.67-26.74-47.72-27.31h0s-.03,0-.04,0c-.07,0-.13,0-.19,0v.02c-28.05.57-41.43,15.15-47.72,27.31-6.75,13.07-6.83,25.89-6.83,26.43v24.67h7.54v-24.67Z"/><path class="d" d="m159.98,45.43c-5.94-12.87-14.16-23.22-24.41-30.74C123.04,5.48,107.5.56,89.39.04V.01c-.12,0-.24.01-.36.01-.23,0-.45-.02-.68-.02v.05c-18.11.52-33.64,5.44-46.18,14.65-10.25,7.53-18.46,17.87-24.41,30.74-9.99,21.63-10.1,42.77-10.1,43.66v43.46h9.04v-43.46c0-3.19.99-77.97,72.32-79.72,71.18,1.97,72.01,76.52,72.01,79.71v43.46h9.04v-43.46c0-.89-.11-22.04-10.1-43.66Z"/></g></svg>